<?xml version="1.0" encoding="UTF-8" standalone="no"?>
<svg
   xmlns:dc="http://purl.org/dc/elements/1.1/"
   xmlns:cc="http://creativecommons.org/ns#"
   xmlns:rdf="http://www.w3.org/1999/02/22-rdf-syntax-ns#"
   xmlns:svg="http://www.w3.org/2000/svg"
   xmlns="http://www.w3.org/2000/svg"
   xmlns:sodipodi="http://sodipodi.sourceforge.net/DTD/sodipodi-0.dtd"
   xmlns:inkscape="http://www.inkscape.org/namespaces/inkscape"
   width="3.6681595mm"
   height="3.5703468mm"
   viewBox="0 0 3.6681595 3.5703469"
   version="1.1"
   id="svg8"
   sodipodi:docname="github.svg"
   inkscape:version="1.0.1 (3bc2e813f5, 2020-09-07)">
  <sodipodi:namedview
     pagecolor="#ffffff"
     bordercolor="#666666"
     borderopacity="1"
     objecttolerance="10"
     gridtolerance="10"
     guidetolerance="10"
     inkscape:pageopacity="0"
     inkscape:pageshadow="2"
     inkscape:window-width="1920"
     inkscape:window-height="1050"
     id="namedview8"
     showgrid="false"
     inkscape:zoom="43.102257"
     inkscape:cx="9.5176459"
     inkscape:cy="8.9136295"
     inkscape:window-x="0"
     inkscape:window-y="30"
     inkscape:window-maximized="1"
     inkscape:current-layer="layer1" />
  <defs
     id="defs2" />
  <metadata
     id="metadata5">
    <rdf:RDF>
      <cc:Work
         rdf:about="">
        <dc:format>image/svg+xml</dc:format>
        <dc:type
           rdf:resource="http://purl.org/dc/dcmitype/StillImage" />
        <dc:title />
      </cc:Work>
    </rdf:RDF>
  </metadata>
  <g
     id="layer1"
     transform="translate(-411.99377,-97.139222)">
    <path
       style="fill:#1e262b;fill-opacity:1;stroke-width:1"
       d="m 413.23929,100.7058 c -0.0975,-0.0352 -0.15809,-0.0607 -0.23355,-0.0984 -0.25361,-0.12674 -0.47589,-0.31245 -0.6468,-0.54038 -0.28926,-0.385764 -0.41288,-0.862705 -0.34854,-1.344791 0.0435,-0.325742 0.17936,-0.640866 0.3876,-0.898878 0.39525,-0.489699 1.00669,-0.741884 1.63152,-0.672914 0.57531,0.0635 1.0787,0.388531 1.37875,0.890225 0.0278,0.04643 0.0857,0.160335 0.10644,0.209409 0.14533,0.343225 0.18397,0.715909 0.11187,1.078936 -0.12027,0.605519 -0.54383,1.113343 -1.12011,1.342903 -0.0763,0.0304 -0.0984,0.0372 -0.12119,0.0372 -0.0557,0 -0.10291,-0.0391 -0.12758,-0.10583 -0.005,-0.0133 -0.005,-0.0326 -0.007,-0.34996 -10e-4,-0.2402 -0.003,-0.342274 -0.005,-0.358424 -0.005,-0.0351 -0.0139,-0.0658 -0.0247,-0.0884 -0.005,-0.0114 -0.009,-0.0211 -0.009,-0.0215 5.1e-4,-4.2e-4 0.013,-0.003 0.0277,-0.005 0.0427,-0.008 0.13577,-0.0313 0.18486,-0.047 0.24457,-0.0785 0.42421,-0.20451 0.54101,-0.379403 0.0598,-0.08949 0.10569,-0.21121 0.12191,-0.323145 0.0217,-0.149352 0.008,-0.324386 -0.0369,-0.464095 -0.0371,-0.116158 -0.10346,-0.23246 -0.17491,-0.306539 l -0.0124,-0.01287 0.0111,-0.02382 c 0.0139,-0.02972 0.0236,-0.06304 0.0318,-0.109298 0.009,-0.04885 0.009,-0.16001 0.001,-0.208034 -0.0112,-0.06682 -0.036,-0.132865 -0.068,-0.181433 l -0.0134,-0.02036 -0.016,2e-6 c -0.047,6e-6 -0.12572,0.01195 -0.1792,0.02719 -0.11853,0.03379 -0.24183,0.105936 -0.32623,0.190877 l -0.0238,0.02394 -0.0228,-0.0077 c -0.074,-0.02496 -0.18962,-0.04537 -0.305,-0.05382 -0.0543,-0.004 -0.20041,-0.004 -0.24977,1.2e-5 -0.12083,0.0097 -0.22676,0.02917 -0.30268,0.05554 l -0.0275,0.0096 -0.0261,-0.02615 c -0.1075,-0.107499 -0.2565,-0.185425 -0.40002,-0.20921 -0.0335,-0.0056 -0.0801,-0.01026 -0.10174,-0.01026 h -0.0165 l -0.0113,0.01585 c -0.0154,0.02146 -0.0374,0.06498 -0.0477,0.09443 -0.0353,0.100377 -0.0382,0.234715 -0.007,0.34475 0.006,0.02318 0.0291,0.07457 0.0384,0.08726 0.003,0.004 2.7e-4,0.0082 -0.0178,0.02822 -0.15536,0.172441 -0.23185,0.392629 -0.22436,0.645861 0.003,0.107588 0.0207,0.198048 0.0556,0.287661 0.10446,0.267987 0.34846,0.459074 0.70119,0.549134 0.0264,0.007 0.0651,0.0156 0.0861,0.0197 0.021,0.004 0.0396,0.008 0.0415,0.009 0.002,7.7e-4 8.7e-4,0.007 -0.005,0.0195 -0.0205,0.0453 -0.0304,0.10595 -0.0345,0.211664 l -6.5e-4,0.0167 -0.0198,0.007 c -0.0834,0.0282 -0.20604,0.029 -0.29882,0.002 -0.10518,-0.0305 -0.17633,-0.0829 -0.23724,-0.174844 -0.0648,-0.0978 -0.15033,-0.15928 -0.24724,-0.17766 -0.0404,-0.008 -0.081,-0.005 -0.1049,0.007 -0.0326,0.0165 -0.0167,0.0482 0.0472,0.0942 0.0716,0.0515 0.13567,0.14117 0.18343,0.256544 0.0179,0.0433 0.0464,0.0854 0.0854,0.12624 0.0832,0.0871 0.19619,0.14124 0.32948,0.15785 0.0335,0.004 0.12225,0.004 0.15945,-7e-5 0.0294,-0.003 0.0899,-0.013 0.0996,-0.016 0.005,-0.001 0.005,0.005 0.004,0.13628 l -8.7e-4,0.13782 -0.007,0.0187 c -0.0164,0.0423 -0.0443,0.0749 -0.0779,0.0907 -0.0167,0.008 -0.0226,0.009 -0.0447,0.01 -0.014,3.3e-4 -0.0292,-7.7e-4 -0.0339,-0.002 z"
       id="path847" />
  </g>
</svg>
