<?xml version="1.0" encoding="UTF-8" standalone="no"?>
<svg
   xmlns:dc="http://purl.org/dc/elements/1.1/"
   xmlns:cc="http://creativecommons.org/ns#"
   xmlns:rdf="http://www.w3.org/1999/02/22-rdf-syntax-ns#"
   xmlns:svg="http://www.w3.org/2000/svg"
   xmlns="http://www.w3.org/2000/svg"
   xmlns:sodipodi="http://sodipodi.sourceforge.net/DTD/sodipodi-0.dtd"
   xmlns:inkscape="http://www.inkscape.org/namespaces/inkscape"
   width="6.2211599mm"
   height="6.2404127mm"
   viewBox="0 0 6.22116 6.2404128"
   version="1.1"
   id="svg8"
   sodipodi:docname="linkedin.svg"
   inkscape:version="1.0.1 (3bc2e813f5, 2020-09-07)">
  <sodipodi:namedview
     pagecolor="#ffffff"
     bordercolor="#666666"
     borderopacity="1"
     objecttolerance="10"
     gridtolerance="10"
     guidetolerance="10"
     inkscape:pageopacity="0"
     inkscape:pageshadow="2"
     inkscape:window-width="1920"
     inkscape:window-height="1050"
     id="namedview8"
     showgrid="false"
     inkscape:zoom="16"
     inkscape:cx="21.282996"
     inkscape:cy="13.864375"
     inkscape:window-x="0"
     inkscape:window-y="30"
     inkscape:window-maximized="1"
     inkscape:current-layer="layer1"
     inkscape:document-rotation="0"
     showguides="true"
     inkscape:guide-bbox="true" />
  <defs
     id="defs2" />
  <metadata
     id="metadata5">
    <rdf:RDF>
      <cc:Work
         rdf:about="">
        <dc:format>image/svg+xml</dc:format>
        <dc:type
           rdf:resource="http://purl.org/dc/dcmitype/StillImage" />
        <dc:title></dc:title>
      </cc:Work>
    </rdf:RDF>
  </metadata>
  <g
     id="layer1"
     transform="translate(-410.76048,-95.946323)">
    <path
       id="path845"
       style="fill:#1e262b;stroke-width:3.77952;fill-opacity:1"
       d="M 11.708984 0 C 1.7288395 0 1.5330533 0.0035559792 1.140625 0.15039062 C 0.71463445 0.30978464 0.36544353 0.62222907 0.13867188 1.0488281 C 0.0029868355 1.3008432 0 1.7142415 0 11.794922 L 0 22.277344 L 0.16210938 22.578125 C 0.38547945 22.992059 0.69791449 23.268555 1.1308594 23.4375 C 1.4863239 23.576965 1.8296606 23.580583 11.6875 23.583984 C 22.92396 23.587839 22.364785 23.610493 22.919922 23.123047 C 23.066001 22.994883 23.259279 22.752551 23.349609 22.583984 L 23.513672 22.277344 L 23.513672 11.794922 L 23.513672 1.3105469 L 23.349609 1.0039062 C 23.259468 0.83525995 23.065812 0.59300753 22.919922 0.46484375 C 22.365125 -0.022352471 22.920613 0 11.708984 0 z M 5.2070312 3.7988281 A 1.765628 1.765628 0 0 1 6.9726562 5.5644531 A 1.765628 1.765628 0 0 1 5.2070312 7.3300781 A 1.765628 1.765628 0 0 1 3.4414062 5.5644531 A 1.765628 1.765628 0 0 1 5.2070312 3.7988281 z M 15.947266 8.5390625 C 18.4461 8.5438625 19.69714 9.7202932 20.03125 12.384766 C 20.072825 12.716283 20.105469 14.598746 20.105469 16.566406 L 20.105469 20.144531 L 18.308594 20.144531 L 16.511719 20.144531 L 16.511719 16.900391 C 16.511719 14.877508 16.480711 13.490447 16.429688 13.214844 C 16.222305 12.093031 15.60438 11.606307 14.511719 11.707031 C 13.683624 11.783363 13.150842 12.196441 12.873047 12.978516 C 12.748322 13.328526 12.731662 13.697401 12.708984 16.755859 L 12.681641 20.144531 L 10.888672 20.144531 L 9.0957031 20.144531 L 9.1152344 14.470703 L 9.1328125 8.7988281 L 10.818359 8.7988281 L 12.503906 8.7988281 L 12.525391 9.5371094 L 12.548828 10.273438 L 12.763672 9.9785156 C 13.421612 9.0702763 14.602699 8.5364773 15.947266 8.5390625 z M 3.4453125 8.7988281 L 5.2050781 8.7988281 L 6.9648438 8.7988281 L 6.9824219 14.470703 L 7.0039062 20.144531 L 5.2050781 20.144531 L 3.4082031 20.144531 L 3.4257812 14.470703 L 3.4453125 8.7988281 z "
       transform="matrix(0.26458333,0,0,0.26458333,410.76048,95.946323)" />
  </g>
</svg>
