<?xml version="1.0" encoding="UTF-8" standalone="no"?>
<svg
   xmlns:dc="http://purl.org/dc/elements/1.1/"
   xmlns:cc="http://creativecommons.org/ns#"
   xmlns:rdf="http://www.w3.org/1999/02/22-rdf-syntax-ns#"
   xmlns:svg="http://www.w3.org/2000/svg"
   xmlns="http://www.w3.org/2000/svg"
   xmlns:sodipodi="http://sodipodi.sourceforge.net/DTD/sodipodi-0.dtd"
   xmlns:inkscape="http://www.inkscape.org/namespaces/inkscape"
   width="2.5185356in"
   height="0.98288542in"
   viewBox="0 0 63.970804 24.96529"
   version="1.1"
   id="svg8"
   inkscape:version="1.0.1 (3bc2e813f5, 2020-09-07)"
   sodipodi:docname="miskabanner.svg">
  <defs
     id="defs2" />
  <sodipodi:namedview
     id="base"
     pagecolor="#ffffff"
     bordercolor="#666666"
     borderopacity="1.0"
     inkscape:pageopacity="0.0"
     inkscape:pageshadow="2"
     inkscape:zoom="1.4"
     inkscape:cx="259.84055"
     inkscape:cy="37.504528"
     inkscape:document-units="mm"
     inkscape:current-layer="layer1"
     inkscape:document-rotation="0"
     showgrid="false"
     showborder="true"
     showguides="false"
     inkscape:guide-bbox="true"
     inkscape:window-width="1920"
     inkscape:window-height="1050"
     inkscape:window-x="0"
     inkscape:window-y="30"
     inkscape:window-maximized="1"
     fit-margin-top="0"
     fit-margin-left="0"
     fit-margin-right="0"
     fit-margin-bottom="0"
     units="in">
    <sodipodi:guide
       position="57.236136,102.67559"
       orientation="-0.97039309,-0.24153104"
       id="guide849" />
    <sodipodi:guide
       position="47.9347,94.866309"
       orientation="-0.97084559,0.23970573"
       id="guide851" />
    <sodipodi:guide
       position="51.358877,99.496269"
       orientation="0,-1"
       id="guide855" />
    <sodipodi:guide
       position="55.321602,79.744829"
       orientation="0,-1"
       id="guide857" />
    <sodipodi:guide
       position="52.91684,89.675829"
       orientation="1,0"
       id="guide882" />
    <sodipodi:guide
       position="67.862629,89.909769"
       orientation="1,0"
       id="guide884" />
  </sodipodi:namedview>
  <metadata
     id="metadata5">
    <rdf:RDF>
      <cc:Work
         rdf:about="">
        <dc:format>image/svg+xml</dc:format>
        <dc:type
           rdf:resource="http://purl.org/dc/dcmitype/StillImage" />
        <dc:title />
      </cc:Work>
    </rdf:RDF>
  </metadata>
  <g
     inkscape:label="Layer 1"
     inkscape:groupmode="layer"
     id="layer1"
     transform="translate(80.146855,-130.28711)">
    <g
       aria-label="TAMMENPÄÄ"
       transform="matrix(1.0477289,0,0,0.95444537,0,39.660337)"
       id="text841"
       style="font-size:11.0884px;line-height:1.25;font-family:Cantarell;-inkscape-font-specification:Cantarell;letter-spacing:1.03188px;stroke-width:0.264582"
       inkscape:export-filename="/home/sirlarion/repos/mtammenpaa/src/main/resources/header.png"
       inkscape:export-xdpi="300"
       inkscape:export-ydpi="300" />
    <path
       id="path940"
       style="color:#000000;font-style:normal;font-variant:normal;font-weight:normal;font-stretch:normal;font-size:medium;line-height:normal;font-family:sans-serif;font-variant-ligatures:normal;font-variant-position:normal;font-variant-caps:normal;font-variant-numeric:normal;font-variant-alternates:normal;font-variant-east-asian:normal;font-feature-settings:normal;font-variation-settings:normal;text-indent:0;text-align:start;text-decoration:none;text-decoration-line:none;text-decoration-style:solid;text-decoration-color:#000000;letter-spacing:normal;word-spacing:normal;text-transform:none;writing-mode:lr-tb;direction:ltr;text-orientation:mixed;dominant-baseline:auto;baseline-shift:baseline;text-anchor:start;white-space:normal;shape-padding:0;shape-margin:0;inline-size:0;clip-rule:nonzero;display:inline;overflow:visible;visibility:visible;opacity:1;isolation:auto;mix-blend-mode:normal;color-interpolation:sRGB;color-interpolation-filters:linearRGB;solid-color:#000000;solid-opacity:1;vector-effect:none;fill:#1e262b;fill-opacity:1;fill-rule:nonzero;stroke:none;stroke-width:0.665;stroke-linecap:butt;stroke-linejoin:miter;stroke-miterlimit:4;stroke-dasharray:none;stroke-dashoffset:0;stroke-opacity:1;color-rendering:auto;image-rendering:auto;shape-rendering:auto;text-rendering:auto;enable-background:accumulate;stop-color:#000000;stop-opacity:1"
       d="m -22.443359,130.28711 -0.684861,0.003 6.268845,24.96229 0.683325,-0.002 z m -9.741148,22.31404 c -0.06971,0 -0.112307,-0.0318 -0.127794,-0.0953 l -0.290441,-1.31232 c 0,-0.0141 -0.0078,-0.0247 -0.02324,-0.0318 -0.0078,-0.007 -0.01936,-0.0106 -0.03486,-0.0106 h -2.102793 c -0.0155,0 -0.03098,0.004 -0.04647,0.0106 -0.0078,0.007 -0.01162,0.0177 -0.01162,0.0318 l -0.290441,1.31232 c -0.0078,0.0635 -0.05034,0.0953 -0.127794,0.0953 h -0.5925 c -0.03872,0 -0.0697,-0.0106 -0.09294,-0.0318 -0.0155,-0.0212 -0.01936,-0.0494 -0.01162,-0.0847 l 1.742645,-7.19662 c 0.0155,-0.0635 0.05809,-0.0953 0.127794,-0.0953 h 0.697058 c 0.07745,0 0.120049,0.0318 0.127795,0.0953 l 1.76588,7.19662 v 0.0212 c 0,0.0635 -0.03486,0.0953 -0.104564,0.0953 z m -2.486175,-2.10607 c 0,0.0282 0.01162,0.0424 0.03486,0.0424 h 1.835586 c 0.02324,0 0.03486,-0.0141 0.03486,-0.0424 l -0.929411,-4.15923 c -0.0078,-0.0212 -0.0155,-0.0318 -0.02324,-0.0318 -0.0078,0 -0.0155,0.0106 -0.02324,0.0318 z m 1.602728,-5.72239 c -0.144133,0 -0.262322,-0.0419 -0.354565,-0.12605 -0.08649,-0.0841 -0.129728,-0.18906 -0.129728,-0.31511 0,-0.1313 0.04323,-0.23635 0.129728,-0.31511 0.09224,-0.0841 0.210432,-0.12606 0.354565,-0.12606 0.138367,0 0.253673,0.0419 0.345917,0.12606 0.09225,0.0788 0.138368,0.18381 0.138368,0.31511 0,0.12605 -0.04613,0.2311 -0.138368,0.31511 -0.09223,0.0841 -0.20755,0.12605 -0.345917,0.12605 z m -1.288546,0 c -0.14413,0 -0.262319,-0.0419 -0.354567,-0.12605 -0.08649,-0.0841 -0.129714,-0.18906 -0.129714,-0.31511 0,-0.1313 0.04323,-0.23635 0.129714,-0.31511 0.09225,-0.0841 0.210437,-0.12606 0.354567,-0.12606 0.138368,0 0.253674,0.0419 0.345919,0.12606 0.09223,0.0788 0.138366,0.18381 0.138366,0.31511 0,0.12605 -0.04613,0.2311 -0.138366,0.31511 -0.09225,0.0841 -0.207551,0.12605 -0.345919,0.12605 z m 8.469448,7.82846 c -0.0697,0 -0.112307,-0.0318 -0.127794,-0.0953 l -0.290441,-1.31232 c 0,-0.0141 -0.0078,-0.0247 -0.02324,-0.0318 -0.0078,-0.007 -0.01936,-0.0106 -0.03486,-0.0106 h -2.102793 c -0.0155,0 -0.03098,0.004 -0.04647,0.0106 -0.0078,0.007 -0.01162,0.0177 -0.01162,0.0318 l -0.290441,1.31232 c -0.0078,0.0635 -0.05034,0.0953 -0.127794,0.0953 h -0.5925 c -0.03872,0 -0.0697,-0.0106 -0.09294,-0.0318 -0.0155,-0.0212 -0.01936,-0.0494 -0.01162,-0.0847 l 1.742645,-7.19662 c 0.0155,-0.0635 0.05809,-0.0953 0.127794,-0.0953 h 0.697058 c 0.07745,0 0.120049,0.0318 0.127795,0.0953 l 1.76588,7.19662 v 0.0212 c 0,0.0635 -0.03486,0.0953 -0.104563,0.0953 z m -2.486175,-2.10607 c 0,0.0282 0.01162,0.0424 0.03486,0.0424 h 1.835587 c 0.02324,0 0.03486,-0.0141 0.03486,-0.0424 l -0.929411,-4.15923 c -0.0078,-0.0212 -0.0155,-0.0318 -0.02324,-0.0318 -0.0078,0 -0.0155,0.0106 -0.02324,0.0318 z m 1.602728,-5.72239 c -0.144133,0 -0.262322,-0.0419 -0.354565,-0.12605 -0.08649,-0.0841 -0.129728,-0.18906 -0.129728,-0.31511 0,-0.1313 0.04323,-0.23635 0.129728,-0.31511 0.09224,-0.0841 0.210432,-0.12606 0.354565,-0.12606 0.138367,0 0.253673,0.0419 0.345917,0.12606 0.09225,0.0788 0.138368,0.18381 0.138368,0.31511 0,0.12605 -0.04613,0.2311 -0.138368,0.31511 -0.09223,0.0841 -0.20755,0.12605 -0.345917,0.12605 z m -1.288545,0 c -0.144131,0 -0.26232,-0.0419 -0.354567,-0.12605 -0.08649,-0.0841 -0.129715,-0.18906 -0.129715,-0.31511 0,-0.1313 0.04323,-0.23635 0.129715,-0.31511 0.09225,-0.0841 0.210436,-0.12606 0.354567,-0.12606 0.138367,0 0.253674,0.0419 0.345918,0.12606 0.09223,0.0788 0.138366,0.18381 0.138366,0.31511 0,0.12605 -0.04613,0.2311 -0.138366,0.31511 -0.09225,0.0841 -0.207551,0.12605 -0.345918,0.12605 z m -11.03862,0.40958 q 0.848088,0 1.370881,0.5715 0.522794,0.56091 0.522794,1.48166 0,0.91016 -0.511176,1.47107 -0.511176,0.55034 -1.347646,0.55034 h -1.196616 q -0.04647,0 -0.04647,0.0423 v 3.19615 q 0,0.10583 -0.116176,0.10583 h -0.592499 q -0.116177,0 -0.116177,-0.10583 v -7.20721 q 0,-0.10584 0.116177,-0.10584 z m -0.104563,3.46073 q 0.522794,0 0.848087,-0.38099 0.325295,-0.381 0.325295,-1.016 0,-0.63499 -0.325295,-1.01599 -0.325293,-0.39159 -0.848087,-0.39159 h -1.057204 q -0.04647,0 -0.04647,0.0424 v 2.7199 q 0,0.0424 0.04647,0.0424 z m -5.472573,-3.34431 q 0,-0.10583 0.116176,-0.10583 h 0.580882 q 0.116177,0 0.116177,0.10583 v 7.19663 q 0,0.10583 -0.116177,0.10583 h -0.68544 q -0.09294,0 -0.127794,-0.0847 l -2.265439,-5.47156 q -0.01162,-0.0318 -0.03486,-0.0212 -0.02324,0 -0.02324,0.0318 l 0.01162,5.43981 q 0,0.10583 -0.116176,0.10583 h -0.5925 q -0.116177,0 -0.116177,-0.10583 v -7.19663 q 0,-0.10583 0.116177,-0.10583 h 0.673824 q 0.09294,0 0.127793,0.0847 l 2.277057,5.48214 q 0.01162,0.0318 0.03486,0.0318 0.02324,-0.0106 0.02324,-0.0424 z m -5.635231,0.4445 q 0,0.10583 -0.116176,0.10583 h -2.695292 q -0.04647,0 -0.04647,0.0424 v 2.62464 q 0,0.0423 0.04647,0.0423 h 1.696174 q 0.116177,0 0.116177,0.10583 v 0.45508 q 0,0.10583 -0.116177,0.10583 h -1.696174 q -0.04647,0 -0.04647,0.0424 v 2.63523 q 0,0.0424 0.04647,0.0424 h 2.695292 q 0.116176,0 0.116176,0.10584 v 0.44449 q 0,0.10583 -0.116176,0.10583 h -3.450439 q -0.116176,0 -0.116176,-0.10583 v -7.19662 q 0,-0.10584 0.116176,-0.10584 h 3.450439 q 0.116176,0 0.116176,0.10584 z m -7.27333,-0.47625 q 0.03486,-0.0741 0.139411,-0.0741 h 0.604118 q 0.116176,0 0.116176,0.10584 v 7.19663 q 0,0.10583 -0.116176,0.10583 h -0.592499 q -0.116177,0 -0.116177,-0.10583 v -5.67264 q 0,-0.0318 -0.02324,-0.0318 -0.01162,0 -0.03486,0.0212 l -1.208235,2.28598 q -0.03486,0.0741 -0.116176,0.0741 -0.09295,0 -0.127794,-0.0741 l -1.208235,-2.27539 q -0.02324,-0.0212 -0.04647,-0.0212 -0.01162,0 -0.01162,0.0318 v 5.66206 q 0,0.10582 -0.116176,0.10582 h -0.592499 q -0.116177,0 -0.116177,-0.10582 v -7.19663 q 0,-0.10584 0.116177,-0.10584 h 0.604117 q 0.104563,0 0.139411,0.0741 l 1.324411,2.44473 q 0.01162,0.0212 0.03486,0.0212 0.02324,0 0.03486,-0.0212 z m -7.133919,0 q 0.03486,-0.0741 0.139412,-0.0741 h 0.604118 q 0.116176,0 0.116176,0.10584 v 7.19663 q 0,0.10583 -0.116176,0.10583 h -0.592499 q -0.116177,0 -0.116177,-0.10583 v -5.67264 q 0,-0.0318 -0.02324,-0.0318 -0.01162,0 -0.03486,0.0212 l -1.208235,2.28598 q -0.03486,0.0741 -0.116176,0.0741 -0.09294,0 -0.127794,-0.0741 l -1.208235,-2.27539 q -0.02324,-0.0212 -0.04647,-0.0212 -0.01162,0 -0.01162,0.0318 v 5.66206 q 0,0.10582 -0.116176,0.10582 h -0.592499 q -0.116177,0 -0.116177,-0.10582 v -7.19663 q 0,-0.10584 0.116177,-0.10584 h 0.604117 q 0.104563,0 0.139411,0.0741 l 1.324411,2.44473 q 0.01162,0.0212 0.03486,0.0212 0.02324,0 0.03486,-0.0212 z m -6.320683,7.33421 q -0.104563,0 -0.127794,-0.0953 l -0.29044,-1.31232 q 0,-0.0212 -0.02324,-0.0318 -0.01162,-0.0106 -0.03486,-0.0106 h -2.102792 q -0.02324,0 -0.04647,0.0106 -0.01162,0.0106 -0.01162,0.0318 l -0.290441,1.31232 q -0.01162,0.0953 -0.127795,0.0953 h -0.592499 q -0.05809,0 -0.09294,-0.0318 -0.02324,-0.0318 -0.01162,-0.0847 l 1.742646,-7.19662 q 0.02324,-0.0953 0.127794,-0.0953 h 0.697058 q 0.116177,0 0.127794,0.0953 l 1.765881,7.19662 v 0.0212 q 0,0.0953 -0.104563,0.0953 z m -2.486174,-2.10607 q 0,0.0424 0.03486,0.0424 h 1.835587 q 0.03486,0 0.03486,-0.0424 l -0.929411,-4.15923 q -0.01162,-0.0318 -0.02324,-0.0318 -0.01162,0 -0.02324,0.0318 z m -2.614635,-5.30222 q 0.116176,0 0.116176,0.10583 v 0.4445 q 0,0.10583 -0.116176,0.10583 h -1.533529 q -0.04647,0 -0.04647,0.0424 v 6.60396 q 0,0.10582 -0.116176,0.10582 h -0.592499 q -0.116176,0 -0.116176,-0.10582 v -6.60396 q 0,-0.0424 -0.04647,-0.0424 h -1.440586 q -0.116177,0 -0.116177,-0.10583 v -0.4445 q 0,-0.10583 0.116177,-0.10583 z m 47.423021,-3.53582 q -0.127,0 -0.155222,-0.11318 l -0.352778,-1.55935 q 0,-0.0251 -0.02822,-0.0377 -0.01411,-0.0126 -0.04233,-0.0126 h -2.554109 q -0.02822,0 -0.05644,0.0126 -0.01411,0.0126 -0.01411,0.0377 l -0.352777,1.55935 q -0.01411,0.11318 -0.155222,0.11318 h -0.719667 q -0.07055,0 -0.112888,-0.0377 -0.02822,-0.0377 -0.01411,-0.1006 l 2.116665,-8.55129 q 0.02822,-0.11318 0.155222,-0.11318 h 0.846666 q 0.141111,0 0.155222,0.11318 l 2.144887,8.55129 v 0.0251 q 0,0.11318 -0.127,0.11318 z m -3.019776,-2.50251 q 0,0.0503 0.04233,0.0503 h 2.229554 q 0.04233,0 0.04233,-0.0503 l -1.128888,-4.94214 q -0.01411,-0.0377 -0.02822,-0.0377 -0.01411,0 -0.02822,0.0377 z m -10.757948,2.50251 q -0.141111,0 -0.141111,-0.12575 V 132.98 q 0,-0.12575 0.141111,-0.12575 h 0.719666 q 0.141111,0 0.141111,0.12575 v 4.07444 q 0,0.0377 0.02822,0.0503 0.02822,0.0126 0.04233,-0.0251 l 2.723442,-4.13732 q 0.07056,-0.088 0.169333,-0.088 h 0.790222 q 0.08467,0 0.112889,0.0503 0.02822,0.0377 -0.01411,0.1006 l -2.201332,3.40794 q -0.02822,0.0503 -0.01411,0.0755 l 2.427109,5.01759 0.01411,0.0503 q 0,0.1006 -0.127,0.1006 h -0.804332 q -0.112889,0 -0.155222,-0.1006 l -2.031994,-4.27563 q -0.01411,-0.0503 -0.07055,0 l -0.874889,1.20723 q -0.01411,0.0126 -0.01411,0.0629 v 2.98037 q 0,0.12575 -0.141111,0.12575 z m -7.611158,0.1006 q -1.044221,0 -1.693332,-0.61619 -0.64911,-0.6162 -0.64911,-1.60965 v -0.28924 q 0,-0.12575 0.141111,-0.12575 h 0.691444 q 0.141111,0 0.141111,0.12575 v 0.25151 q 0,0.6665 0.380999,1.08148 0.381,0.40242 0.987777,0.40242 0.592667,0 0.987777,-0.38984 0.395111,-0.38984 0.395111,-1.03118 0,-0.42757 -0.197555,-0.72938 -0.183444,-0.31438 -0.493889,-0.54074 -0.296333,-0.23893 -1.001888,-0.7168 -0.705555,-0.46529 -1.114777,-0.79225 -0.409222,-0.33954 -0.677332,-0.80483 -0.254,-0.46529 -0.254,-1.09406 0,-0.98088 0.634999,-1.54678 0.635,-0.57847 1.650999,-0.57847 1.072444,0 1.707443,0.62878 0.649111,0.61619 0.649111,1.64738 v 0.31438 q 0,0.12575 -0.141111,0.12575 H -48.6653 q -0.141111,0 -0.141111,-0.12575 v -0.32696 q 0,-0.6665 -0.381,-1.06891 -0.366889,-0.41499 -0.987777,-0.41499 -0.564444,0 -0.931333,0.36469 -0.366888,0.35211 -0.366888,1.00603 0,0.38984 0.155222,0.69165 0.169333,0.28923 0.493888,0.55332 0.324556,0.26408 0.959555,0.69165 0.846666,0.55331 1.255888,0.90543 0.423333,0.33953 0.649111,0.75452 0.225777,0.40241 0.225777,0.98088 0,1.03119 -0.663221,1.65996 -0.663222,0.61619 -1.707444,0.61619 z m -8.33082,-0.1006 q -0.141111,0 -0.141111,-0.12575 V 132.98 q 0,-0.12575 0.141111,-0.12575 h 0.719666 q 0.141111,0 0.141111,0.12575 v 8.55129 q 0,0.12575 -0.141111,0.12575 z m -6.708068,-8.71476 q 0.04233,-0.088 0.169333,-0.088 h 0.733778 q 0.141111,0 0.141111,0.12575 v 8.55128 q 0,0.12576 -0.141111,0.12576 h -0.719666 q -0.141111,0 -0.141111,-0.12576 v -6.74042 q 0,-0.0377 -0.02822,-0.0377 -0.01411,0 -0.04233,0.0251 l -1.467554,2.71629 q -0.04233,0.088 -0.141111,0.088 -0.112889,0 -0.155222,-0.088 l -1.467555,-2.70372 q -0.02822,-0.0251 -0.05644,-0.0251 -0.01411,0 -0.01411,0.0377 v 6.72785 q 0,0.12576 -0.141111,0.12576 h -0.719666 q -0.141111,0 -0.141111,-0.12576 V 132.98 q 0,-0.12575 0.141111,-0.12575 h 0.733777 q 0.127,0 0.169333,0.088 l 1.608665,2.90492 q 0.01411,0.0252 0.04233,0.0252 0.02822,0 0.04233,-0.0252 z"
       inkscape:export-filename="/home/sirlarion/repos/mtammenpaa/src/main/resources/header.png"
       inkscape:export-xdpi="300"
       inkscape:export-ydpi="300" />
  </g>
</svg>
