<?xml version="1.0" encoding="UTF-8" standalone="no"?>
<svg
   xmlns:dc="http://purl.org/dc/elements/1.1/"
   xmlns:cc="http://creativecommons.org/ns#"
   xmlns:rdf="http://www.w3.org/1999/02/22-rdf-syntax-ns#"
   xmlns:svg="http://www.w3.org/2000/svg"
   xmlns="http://www.w3.org/2000/svg"
   width="3.5970149mm"
   height="3.666249mm"
   viewBox="0 0 3.5970149 3.6662491"
   version="1.1"
   id="svg8">
  <defs
     id="defs2" />
  <metadata
     id="metadata5">
    <rdf:RDF>
      <cc:Work
         rdf:about="">
        <dc:format>image/svg+xml</dc:format>
        <dc:type
           rdf:resource="http://purl.org/dc/dcmitype/StillImage" />
        <dc:title></dc:title>
      </cc:Work>
    </rdf:RDF>
  </metadata>
  <g
     id="layer1"
     transform="translate(-412.90695,-97.609024)">
    <path
       style="fill:#1e262b;stroke-width:1;fill-opacity:1"
       d="m 413.75732,101.27385 c -0.29175,-0.0133 -0.56293,-0.17474 -0.71955,-0.42843 -0.0714,-0.11561 -0.11713,-0.25469 -0.12882,-0.39165 -0.002,-0.0179 -0.002,-0.38939 -0.002,-1.01412 3e-5,-1.057104 -5.4e-4,-1.013721 0.012,-1.085797 0.0215,-0.124149 0.0736,-0.252719 0.14315,-0.353552 0.0669,-0.09683 0.15945,-0.187261 0.25444,-0.248499 0.11258,-0.07257 0.23129,-0.11671 0.36871,-0.137078 l 0.0381,-0.0057 h 0.98219 c 0.92938,0 0.98378,2.36e-4 1.01167,0.0044 0.11485,0.01705 0.19863,0.04289 0.2922,0.09011 0.0851,0.04298 0.15241,0.09088 0.22048,0.157042 0.0564,0.05481 0.0956,0.102903 0.13672,0.16757 0.0215,0.03388 0.0545,0.09671 0.0688,0.130937 0.0242,0.05798 0.046,0.132915 0.0564,0.193762 0.0132,0.07685 0.0126,0.02103 0.0118,1.106421 -8.1e-4,1.112814 5.5e-4,1.009264 -0.0165,1.095144 -0.0297,0.14823 -0.0987,0.28919 -0.19865,0.40638 -0.13495,0.1581 -0.32912,0.26854 -0.53065,0.30183 -0.0791,0.0131 -0.005,0.0122 -1.02271,0.0126 -0.51591,2.2e-4 -0.95568,-2.7e-4 -0.97729,-0.001 z m 1.74862,-0.28475 c 0.16062,-0.009 0.30714,-0.0645 0.43309,-0.16452 0.0326,-0.0259 0.094,-0.0872 0.11903,-0.1188 0.0845,-0.10698 0.13502,-0.22201 0.15894,-0.3625 l 0.006,-0.0332 v -0.86556 c 0,-0.822926 -2.1e-4,-0.867012 -0.004,-0.895026 -0.0259,-0.171531 -0.0978,-0.316048 -0.21649,-0.434678 -0.12052,-0.120521 -0.27202,-0.194709 -0.4445,-0.217669 -0.02,-0.0026 -0.1775,-0.0032 -0.85451,-0.0032 -0.78891,0 -0.83141,2.19e-4 -0.85942,0.0045 -0.12453,0.01882 -0.22731,0.0586 -0.32658,0.126409 -0.11638,0.0795 -0.21066,0.192607 -0.26652,0.319721 -0.0378,0.08624 -0.0579,0.169309 -0.0638,0.263825 -0.003,0.04898 -0.003,1.618528 0,1.667498 0.008,0.13445 0.0512,0.26284 0.12515,0.37361 0.0332,0.0497 0.0513,0.0717 0.0958,0.11647 0.0547,0.0549 0.10956,0.0965 0.17446,0.13238 0.0939,0.0519 0.2079,0.0845 0.31553,0.0906 0.0505,0.003 1.55803,0.003 1.60865,2.3e-4 z m -0.85359,-0.62782 c -0.12972,-0.009 -0.24819,-0.0404 -0.3559,-0.094 -0.15644,-0.0777 -0.29066,-0.20157 -0.38091,-0.351324 -0.12915,-0.214273 -0.16512,-0.470611 -0.10027,-0.714548 0.0404,-0.152059 0.12315,-0.295019 0.23669,-0.409013 0.074,-0.07429 0.14619,-0.126744 0.23944,-0.173997 0.0838,-0.04246 0.16126,-0.06812 0.2566,-0.08499 0.093,-0.01645 0.21618,-0.01682 0.3094,-8.97e-4 0.1901,0.03243 0.36126,0.120694 0.49721,0.256393 0.15428,0.153971 0.24663,0.349522 0.26789,0.567218 0.004,0.03965 0.004,0.132916 3e-5,0.170657 -0.023,0.225482 -0.11775,0.421914 -0.27811,0.577041 -0.14233,0.13769 -0.31889,0.22327 -0.51649,0.25038 -0.054,0.007 -0.12814,0.0103 -0.17556,0.007 z m 0.12648,-0.23041 c 0.24106,-0.0279 0.44783,-0.182866 0.54611,-0.409386 0.04,-0.09217 0.0574,-0.177919 0.0573,-0.281834 -1.3e-4,-0.113596 -0.0231,-0.211411 -0.0734,-0.311847 -0.089,-0.178042 -0.24176,-0.304757 -0.43047,-0.357162 -0.0569,-0.01581 -0.10622,-0.02209 -0.17326,-0.02209 -0.0783,0 -0.12948,0.0078 -0.20257,0.03099 -0.17949,0.05688 -0.33342,0.194741 -0.41163,0.368624 -0.0433,0.09628 -0.0633,0.189844 -0.0631,0.295176 1.3e-4,0.08087 0.011,0.146943 0.0365,0.223536 0.0849,0.254326 0.31138,0.438363 0.57206,0.465023 0.0337,0.003 0.10841,0.003 0.14244,-0.001 z m 0.83318,-1.37491 c -0.0671,-0.01184 -0.13304,-0.05232 -0.17403,-0.106802 -0.0632,-0.08401 -0.0719,-0.203352 -0.0218,-0.296846 0.0335,-0.06242 0.0919,-0.110962 0.15945,-0.132463 0.0326,-0.01037 0.042,-0.01163 0.086,-0.01144 0.0383,1.65e-4 0.0456,8.98e-4 0.0669,0.0066 0.07,0.01879 0.1273,0.06071 0.165,0.120757 0.0692,0.11023 0.0531,0.251602 -0.0392,0.34386 -0.0336,0.03355 -0.0777,0.05873 -0.12518,0.07137 -0.0301,0.008 -0.0862,0.01041 -0.11708,0.005 z"
       id="path883" />
  </g>
</svg>
