<?xml version="1.0" encoding="UTF-8" standalone="no"?>
<!-- Created with Inkscape (http://www.inkscape.org/) -->

<svg
   width="134.47601mm"
   height="32.099998mm"
   viewBox="0 0 134.47602 32.099999"
   version="1.1"
   id="svg1"
   inkscape:export-filename="bitmap.png"
   inkscape:export-xdpi="179.93079"
   inkscape:export-ydpi="179.93079"
   inkscape:version="1.4 (e7c3feb100, 2024-10-09)"
   sodipodi:docname="lattice.svg"
   xmlns:inkscape="http://www.inkscape.org/namespaces/inkscape"
   xmlns:sodipodi="http://sodipodi.sourceforge.net/DTD/sodipodi-0.dtd"
   xmlns="http://www.w3.org/2000/svg"
   xmlns:svg="http://www.w3.org/2000/svg">
  <sodipodi:namedview
     id="namedview1"
     pagecolor="#ffffff"
     bordercolor="#999999"
     borderopacity="1"
     inkscape:showpageshadow="2"
     inkscape:pageopacity="0"
     inkscape:pagecheckerboard="0"
     inkscape:deskcolor="#d1d1d1"
     inkscape:document-units="mm"
     inkscape:zoom="1.5801237"
     inkscape:cx="213.59087"
     inkscape:cy="106.32079"
     inkscape:window-width="1920"
     inkscape:window-height="1080"
     inkscape:window-x="0"
     inkscape:window-y="0"
     inkscape:window-maximized="1"
     inkscape:current-layer="layer1"
     showguides="false"
     showgrid="false" />
  <defs
     id="defs1" />
  <g
     inkscape:label="Layer 1"
     inkscape:groupmode="layer"
     id="layer1"
     transform="translate(-17.066339,-29.435319)">
    <rect
       style="fill:none;fill-opacity:1;stroke:#000000;stroke-width:0.1;stroke-dasharray:none;stroke-opacity:1;paint-order:stroke fill markers"
       id="rect1"
       width="134.37601"
       height="32"
       x="17.116339"
       y="29.485319" />
    <rect
       style="display:none;fill:#c4c4c4;fill-opacity:1;stroke:none;stroke-width:0.122109;stroke-dasharray:none;stroke-opacity:1;paint-order:stroke fill markers"
       id="rect2"
       width="32.400002"
       height="26"
       x="63.00634"
       y="32.485317" />
    <path
       id="path240"
       style="fill:none;fill-opacity:1;stroke:#000000;stroke-width:0.103842;stroke-dasharray:none;stroke-opacity:1;paint-order:stroke fill markers"
       d="m 38.802354,29.462581 v 13.00024 z m 1.500167,0 v 13.00024 z m 1.49965,0 v 13.00024 z m 1.500167,0 v 13.00024 z m 1.500166,0 v 13.00024 z m 1.49965,0 v 13.00024 z m 1.500167,0 v 13.00024 z m 1.500167,0 v 13.00024 z m 1.49965,0 v 13.00024 z m 1.500167,0 v 13.00024 z m 1.500167,0 v 13.00024 z m 1.49965,0 v 13.00024 z m 1.500167,0 v 13.00024 z m 1.500167,0 v 13.00024 z m 1.49965,0 v 13.00024 z m 1.500166,0 v 13.00024 z m 1.500167,0 v 13.00024 z m 1.49965,0 v 13.00024 z m 1.500167,0 v 13.00024 z m 1.500167,0 v 13.00024 z m 34.003607,0 v 13.00024 z m 1.50017,0 v 13.00024 z m 1.49965,0 v 13.00024 z m 1.50017,0 v 13.00024 z m 1.50016,0 v 13.00024 z m 1.49965,0 v 13.00024 z m 1.50017,0 v 13.00024 z m 1.50017,0 v 13.00024 z m 1.49965,0 v 13.00024 z m 1.50016,0 v 13.00024 z m 1.50017,0 v 13.00024 z m 1.49965,0 v 13.00024 z m 1.50017,0 v 13.00024 z m 1.50016,0 v 13.00024 z m 1.49965,0 v 13.00024 z m 1.50017,0 v 13.00024 z m 1.50017,0 v 13.00024 z m 1.49965,0 v 13.00024 z m 1.50016,0 v 13.00024 z m 1.50017,0.02274 v 13.00024 z m -91.753571,2.999817 v 25.999963 z m 1.49965,0 v 25.999963 z m 1.500167,0 v 25.999963 z m 1.500167,0 v 25.999963 z m 1.49965,0 v 25.999963 z m 1.500166,0 v 25.999963 z m 1.500167,0 v 25.999963 z m 1.49965,0 v 25.999963 z m 1.500167,0 v 25.999963 z m 1.500167,0 v 25.999963 z m 1.49965,0 v 25.999963 z m 1.500167,0 v 25.999963 z m 1.500167,0 v 25.999963 z m 1.49965,0 v 25.999963 z m 1.500167,0 v 25.999963 z m 1.500166,0 v 25.999963 z m 1.49965,0 v 25.999963 z m 1.500167,0 v 25.999963 z m 1.500167,0 v 25.999963 z m 1.49965,0 v 25.999963 z m 1.500167,0 v 25.999963 z m 32.503962,0 v 25.999963 z m 1.49965,0 v 25.999963 z m 1.50016,0 v 25.999963 z m 1.50017,0 v 25.999963 z m 1.49965,0 v 25.999963 z m 1.50017,0 v 25.999963 z m 1.50016,0 v 25.999963 z m 1.49965,0 v 25.999963 z m 1.50017,0 v 25.999963 z m 1.50017,0 v 25.999963 z m 1.49965,0 v 25.999963 z m 1.50017,0 v 25.999963 z m 1.50016,0 v 25.999963 z m 1.49965,0 v 25.999963 z m 1.50017,0 v 25.999963 z m 1.50017,0 v 25.999963 z m 1.49965,0 v 25.999963 z m 1.50016,0 v 25.999963 z m 1.50017,0 v 25.999963 z m 1.49965,0 v 25.999963 z m 1.50017,0 V 58.485099 Z M 67.302423,48.485193 v 13.00024 z m 62.503677,0 v 13.00024 z m -91.003746,0.02274 v 13.000241 z m 1.500167,0 v 13.000241 z m 1.49965,0 v 13.000241 z m 1.500167,0 v 13.000241 z m 1.500166,0 v 13.000241 z m 1.49965,0 v 13.000241 z m 1.500167,0 v 13.000241 z m 1.500167,0 v 13.000241 z m 1.49965,0 v 13.000241 z m 1.500167,0 v 13.000241 z m 1.500167,0 v 13.000241 z m 1.49965,0 v 13.000241 z m 1.500167,0 v 13.000241 z m 1.500167,0 v 13.000241 z m 1.49965,0 v 13.000241 z m 1.500166,0 v 13.000241 z m 1.500167,0 v 13.000241 z m 1.49965,0 v 13.000241 z m 1.500167,0 v 13.000241 z m 35.503774,0 v 13.000241 z m 1.50017,0 v 13.000241 z m 1.49965,0 v 13.000241 z m 1.50017,0 v 13.000241 z m 1.50016,0 v 13.000241 z m 1.49965,0 v 13.000241 z m 1.50017,0 v 13.000241 z m 1.50017,0 v 13.000241 z m 1.49965,0 v 13.000241 z m 1.50016,0 v 13.000241 z m 1.50017,0 v 13.000241 z m 1.49965,0 v 13.000241 z m 1.50017,0 v 13.000241 z m 1.50016,0 v 13.000241 z m 1.49965,0 v 13.000241 z m 1.50017,0 v 13.000241 z m 1.50017,0 v 13.000241 z m 1.49965,0 v 13.000241 z m 1.50016,0 v 13.000241 z" />
  </g>
</svg>
