<?xml version="1.0" encoding="UTF-8" standalone="no"?>
<svg
   height="63.212749mm"
   version="1.2"
   viewBox="0 0 843.99994 632.12749"
   width="84.399994mm"
   id="svg39"
   xmlns="http://www.w3.org/2000/svg"
   xmlns:svg="http://www.w3.org/2000/svg"
   xmlns:rdf="http://www.w3.org/1999/02/22-rdf-syntax-ns#"
   xmlns:cc="http://creativecommons.org/ns#"
   xmlns:dc="http://purl.org/dc/elements/1.1/">
  <title
     id="title1">FreeCAD SVG Export</title>
  <desc
     id="desc1">Drawing page: Page exported from FreeCAD document: istand</desc>
  <defs
     id="defs1" />
  <path
     id="path26"
     style="font-style:normal;font-weight:400;font-size:31.75px;font-family:'Sans Serif';fill:none;stroke:#000000;stroke-width:1.00000003;stroke-linecap:round;stroke-linejoin:bevel;stroke-opacity:1;stroke-dasharray:none"
     d="m 122.58222,131 c 0,-19.0538 15.446,-34.5 34.5,-34.5 h 259.99996 c 19.054,0 34.5,15.4462 34.5,34.5 0,19.0538 -15.446,34.5 -34.5,34.5 H 157.08222 c -19.054,0 -34.5,-15.4462 -34.5,-34.5 z m 21.5,-95.5 h -20 c -52.743001,0 -95.499997,42.7568 -95.499997,95.5 0,52.7432 42.756996,95.5 95.499997,95.5 h 20 v 32 h 32 v -32 h 221.99996 v 32 h 32 v -32 h 20 c 52.743,0 95.5,-42.7568 95.5,-95.5 0,-52.7432 -42.757,-95.5 -95.5,-95.5 h -20 v -32 h -32 v 32 H 176.08222 v -32 h -32 z" />
  <path
     id="path39"
     style="font-style:normal;font-weight:400;font-size:31.75px;font-family:'Sans Serif';fill:none;stroke:#000000;stroke-width:1.00000003;stroke-linecap:round;stroke-linejoin:bevel;stroke-opacity:1;stroke-dasharray:none"
     d="m 179,277.62751 c -96.926001,0 -175.5,78.574 -175.5,175.5 0,96.926 78.573999,175.5 175.5,175.5 h 485.99996 c 96.926,0 175.5,-78.574 175.5,-175.5 0,-96.926 -78.574,-175.5 -175.5,-175.5 h -223 v 65 h 171 c 61.027,0 110.5,49.4725 110.5,110.5 0,61.0275 -49.473,110.5 -110.5,110.5 H 231 c -61.027,0 -110.5,-49.4725 -110.5,-110.5 0,-61.0275 49.473,-110.5 110.5,-110.5 h 170.99996 v -65 z" />
  <metadata
     id="metadata39">
    <rdf:RDF>
      <cc:Work
         rdf:about="">
        <dc:title>FreeCAD SVG Export</dc:title>
      </cc:Work>
    </rdf:RDF>
  </metadata>
</svg>
